<svg width="30" height="30" viewBox="0 0 30 30" fill="none" xmlns="http://www.w3.org/2000/svg">
<rect x="0.5" y="0.5" width="29" height="29" rx="4.5" stroke="#3AB2B4" stroke-opacity="0.3"/>
<path d="M18.9396 8H12.0604C9.82144 8 8 9.82144 8 12.0604V18.9397C8 21.1785 9.82144 23 12.0604 23H18.9397C21.1785 23 23 21.1785 23 18.9397V12.0604C23 9.82144 21.1785 8 18.9396 8V8ZM15.5 19.6014C13.2384 19.6014 11.3985 17.7616 11.3985 15.5C11.3985 13.2384 13.2384 11.3985 15.5 11.3985C17.7616 11.3985 19.6014 13.2384 19.6014 15.5C19.6014 17.7616 17.7616 19.6014 15.5 19.6014ZM19.6995 12.3658C19.0312 12.3658 18.4876 11.8222 18.4876 11.1539C18.4876 10.4855 19.0312 9.94183 19.6995 9.94183C20.3678 9.94183 20.9115 10.4855 20.9115 11.1539C20.9115 11.8222 20.3678 12.3658 19.6995 12.3658Z" fill="#3AB2B4"/>
<path d="M15.5 12.2778C13.7235 12.2778 12.278 13.7232 12.278 15.4999C12.278 17.2765 13.7235 18.722 15.5 18.722C17.2767 18.722 18.7221 17.2765 18.7221 15.4999C18.7221 13.7232 17.2767 12.2778 15.5 12.2778Z" fill="#3AB2B4"/>
<path d="M19.6995 10.8213C19.5162 10.8213 19.3669 10.9705 19.3669 11.1539C19.3669 11.3372 19.5162 11.4864 19.6995 11.4864C19.883 11.4864 20.0322 11.3373 20.0322 11.1539C20.0322 10.9704 19.883 10.8213 19.6995 10.8213Z" fill="#3AB2B4"/>
</svg>
