<svg width="24" height="24" viewBox="0 0 24 24" fill="none" xmlns="http://www.w3.org/2000/svg">
<g clip-path="url(#clip0)">
<path d="M11.8245 24C18.3442 24 23.649 18.6169 23.649 12C23.649 10.8579 23.4919 9.73242 23.1808 8.65454C23.0276 8.12451 22.4822 7.82007 21.9585 7.97559C21.4357 8.13062 21.1367 8.68604 21.2894 9.21606C21.5471 10.1116 21.6782 11.0486 21.6782 12C21.6782 17.5139 17.2577 22 11.8245 22C6.39121 22 1.97075 17.5139 1.97075 12C1.97075 6.48608 6.39121 2 11.8245 2C13.7991 2 15.6989 2.58594 17.3184 3.69409C17.7692 4.00293 18.3822 3.88159 18.686 3.42407C18.9901 2.96606 18.8715 2.34448 18.4202 2.03589C16.474 0.704102 14.1934 0 11.8245 0C5.3048 0 0 5.38306 0 12C0 18.6169 5.3048 24 11.8245 24Z" fill="url(#paint0_linear)"/>
<path d="M21.9669 2.29303L11.8245 12.5855L8.57971 9.29303C8.1948 8.90265 7.57124 8.90265 7.18633 9.29303C6.80166 9.68365 6.80166 10.3165 7.18633 10.7071L11.1278 14.7071C11.3205 14.9026 11.5722 15.0001 11.8245 15.0001C12.0769 15.0001 12.3285 14.9026 12.5212 14.7071L23.3603 3.70709C23.745 3.31647 23.745 2.68365 23.3603 2.29303C22.9754 1.90265 22.3518 1.90265 21.9669 2.29303Z" fill="url(#paint1_linear)"/>
</g>
<defs>
<linearGradient id="paint0_linear" x1="23.649" y1="-1.06481e-05" x2="-0.674593" y2="0.704349" gradientUnits="userSpaceOnUse">
<stop stop-color="#2FE99C"/>
<stop offset="1" stop-color="#33B8B6"/>
</linearGradient>
<linearGradient id="paint1_linear" x1="23.6488" y1="2.00024" x2="6.43024" y2="2.65227" gradientUnits="userSpaceOnUse">
<stop stop-color="#2FE99C"/>
<stop offset="1" stop-color="#33B8B6"/>
</linearGradient>
<clipPath id="clip0">
<rect width="23.649" height="24" fill="white"/>
</clipPath>
</defs>
</svg>
