<svg width="13" height="14" viewBox="0 0 13 14" fill="none" xmlns="http://www.w3.org/2000/svg">
<path d="M2.90991 13.0599H0.214732V4.34047H2.90991V13.0599ZM1.56087 3.15106C0.69904 3.15106 0 2.43392 0 1.5681C6.16861e-09 1.15221 0.164448 0.75336 0.457168 0.459285C0.749888 0.16521 1.1469 0 1.56087 0C1.97484 0 2.37185 0.16521 2.66457 0.459285C2.95729 0.75336 3.12174 1.15221 3.12174 1.5681C3.12174 2.43392 2.42241 3.15106 1.56087 3.15106ZM12.9971 13.0599H10.3077V8.81533C10.3077 7.80375 10.2874 6.50648 8.90645 6.50648C7.50518 6.50648 7.29045 7.60552 7.29045 8.74245V13.0599H4.59817V4.34047H7.18308V5.52988H7.2208C7.58062 4.8448 8.45958 4.12183 9.77089 4.12183C12.4986 4.12183 13 5.92635 13 8.27019V13.0599H12.9971Z" fill="black"/>
</svg>
