<svg width="30" height="30" viewBox="0 0 30 30" fill="none" xmlns="http://www.w3.org/2000/svg">
<rect x="0.5" y="0.5" width="29" height="29" rx="4.5" stroke="#3AB2B4" stroke-opacity="0.3"/>
<path d="M11.9099 20.0599H9.21473V11.3405H11.9099V20.0599ZM10.5609 10.1511C9.69904 10.1511 9 9.43392 9 8.5681C9 8.15221 9.16445 7.75336 9.45717 7.45928C9.74989 7.16521 10.1469 7 10.5609 7C10.9748 7 11.3719 7.16521 11.6646 7.45928C11.9573 7.75336 12.1217 8.15221 12.1217 8.5681C12.1217 9.43392 11.4224 10.1511 10.5609 10.1511ZM21.9971 20.0599H19.3077V15.8153C19.3077 14.8038 19.2874 13.5065 17.9065 13.5065C16.5052 13.5065 16.2904 14.6055 16.2904 15.7425V20.0599H13.5982V11.3405H16.1831V12.5299H16.2208C16.5806 11.8448 17.4596 11.1218 18.7709 11.1218C21.4986 11.1218 22 12.9264 22 15.2702V20.0599H21.9971Z" fill="#3AB2B4"/>
</svg>
