<svg width="62" height="62" viewBox="0 0 62 62" fill="none" xmlns="http://www.w3.org/2000/svg">
<path d="M1.2081e-06 41.3333C-0.000637253 42.2665 0.251799 43.1825 0.730449 43.9837C1.2091 44.7848 1.89606 45.4413 2.71823 45.8832C3.5404 46.3251 4.46703 46.536 5.39951 46.4932C6.332 46.4505 7.23546 46.1559 8.01376 45.6407L16.3579 53.9826C15.9384 54.6179 15.6645 55.3381 15.5559 56.0915C15.4473 56.845 15.5067 57.6132 15.7298 58.3411C15.9529 59.0689 16.3342 59.7385 16.8464 60.3018C17.3586 60.8651 17.9891 61.3083 18.6926 61.5995C19.3962 61.8907 20.1554 62.0229 20.916 61.9865C21.6766 61.95 22.4198 61.7459 23.0923 61.3888C23.7647 61.0317 24.3499 60.5303 24.806 59.9207C25.262 59.311 25.5775 58.6081 25.73 57.8622H36.2713C36.4229 58.609 36.7379 59.313 37.1938 59.9237C37.6496 60.5344 38.2349 61.0368 38.9078 61.3947C39.5807 61.7526 40.3245 61.9573 41.0858 61.994C41.8471 62.0307 42.6071 61.8986 43.3114 61.607C44.0156 61.3155 44.6466 60.8718 45.1591 60.3078C45.6716 59.7438 46.0529 59.0733 46.2757 58.3446C46.4985 57.6159 46.5573 56.8469 46.4478 56.0928C46.3383 55.3387 46.0633 54.6182 45.6425 53.9828L50.1375 49.489L48.6761 48.028L44.1811 52.5218C43.4763 52.0551 42.6676 51.7686 41.8261 51.6874C40.9846 51.6062 40.1361 51.7328 39.355 52.0561C38.5739 52.3794 37.8842 52.8895 37.3464 53.5416C36.8086 54.1938 36.4392 54.9679 36.2706 55.7961H25.73C25.4529 54.4512 24.6529 53.2714 23.5059 52.5162L24.1068 51.0144L22.1879 50.2471L21.5876 51.7474C20.2789 51.5085 18.9284 51.7863 17.8202 52.5222L9.47606 44.1803C10.2122 43.0724 10.49 41.7223 10.2511 40.4139L17.9518 37.3345L17.1843 35.4161L9.48083 38.4957C8.72539 37.3489 7.54526 36.549 6.2 36.272V25.7342C7.54526 25.4572 8.72539 24.6573 9.48083 23.5105L17.183 26.5907L17.9506 24.6723L10.2496 21.5923C10.4886 20.2839 10.2108 18.9338 9.47463 17.8259L15.9071 11.3951L14.4464 9.934L8.01389 16.3648C7.37842 15.9453 6.65803 15.6714 5.90431 15.5628C5.15058 15.4542 4.38216 15.5135 3.65405 15.7365C2.92595 15.9596 2.25617 16.3408 1.69267 16.8529C1.12917 17.3649 0.685894 17.9952 0.394567 18.6986C0.10324 19.402 -0.0289278 20.1611 0.00752695 20.9216C0.0439817 21.682 0.248157 22.425 0.605435 23.0973C0.962713 23.7696 1.46426 24.3547 2.07416 24.8105C2.68406 25.2664 3.38723 25.5818 4.13333 25.7342V36.2726C2.9673 36.5123 1.91954 37.1465 1.16663 38.0683C0.413728 38.9901 0.00170438 40.1432 1.2081e-06 41.3333ZM41.3333 53.73C41.9465 53.73 42.5458 53.9118 43.0556 54.2523C43.5654 54.5928 43.9627 55.0769 44.1974 55.6432C44.432 56.2095 44.4934 56.8326 44.3738 57.4338C44.2542 58.035 43.9589 58.5872 43.5254 59.0206C43.0918 59.454 42.5395 59.7492 41.9381 59.8688C41.3368 59.9884 40.7135 59.927 40.147 59.6924C39.5806 59.4578 39.0964 59.0606 38.7558 58.551C38.4151 58.0413 38.2333 57.4421 38.2333 56.8292C38.2343 56.0075 38.5612 55.2198 39.1424 54.6388C39.7235 54.0578 40.5115 53.731 41.3333 53.73ZM20.6667 53.73C21.2798 53.73 21.8791 53.9118 22.3889 54.2523C22.8987 54.5928 23.2961 55.0769 23.5307 55.6432C23.7653 56.2095 23.8267 56.8326 23.7071 57.4338C23.5875 58.035 23.2922 58.5872 22.8587 59.0206C22.4252 59.454 21.8728 59.7492 21.2714 59.8688C20.6701 59.9884 20.0468 59.927 19.4803 59.6924C18.9139 59.4578 18.4297 59.0606 18.0891 58.551C17.7485 58.0413 17.5667 57.4421 17.5667 56.8292C17.5676 56.0075 17.8945 55.2198 18.4757 54.6388C19.0569 54.0578 19.8448 53.731 20.6667 53.73ZM2.06667 20.6722C2.06667 20.0593 2.24848 19.4601 2.58911 18.9504C2.92974 18.4408 3.4139 18.0435 3.98035 17.809C4.5468 17.5744 5.17011 17.513 5.77145 17.6326C6.37279 17.7522 6.92516 18.0474 7.3587 18.4808C7.79224 18.9142 8.08749 19.4664 8.2071 20.0676C8.32672 20.6688 8.26533 21.2919 8.03069 21.8582C7.79606 22.4245 7.39873 22.9085 6.88894 23.2491C6.37914 23.5896 5.77979 23.7714 5.16667 23.7714C4.34479 23.7704 3.55685 23.4436 2.97569 22.8626C2.39454 22.2816 2.06763 21.4939 2.06667 20.6722ZM5.16667 38.2342C5.77979 38.2342 6.37914 38.4159 6.88894 38.7565C7.39873 39.097 7.79606 39.581 8.03069 40.1473C8.26533 40.7136 8.32672 41.3368 8.2071 41.9379C8.08749 42.5391 7.79224 43.0913 7.3587 43.5248C6.92516 43.9582 6.37279 44.2534 5.77145 44.3729C5.17011 44.4925 4.5468 44.4312 3.98035 44.1966C3.4139 43.962 2.92974 43.5648 2.58911 43.0551C2.24848 42.5455 2.06667 41.9463 2.06667 41.3333C2.06763 40.5117 2.39454 39.7239 2.97569 39.1429C3.55685 38.5619 4.34479 38.2351 5.16667 38.2342ZM62 20.6722C62.0006 19.739 61.7482 18.8231 61.2696 18.0219C60.7909 17.2207 60.1039 16.5642 59.2818 16.1223C58.4596 15.6804 57.533 15.4696 56.6005 15.5123C55.668 15.555 54.7645 15.8497 53.9862 16.3649L45.6421 8.02297C46.0619 7.3877 46.336 6.66748 46.4448 5.91388C46.5536 5.16029 46.4944 4.39196 46.2714 3.66393C46.0484 2.9359 45.6671 2.26617 45.1549 1.70271C44.6426 1.13925 44.0121 0.695995 43.3084 0.404688C42.6048 0.113381 41.8454 -0.0187709 41.0846 0.0176964C40.3239 0.0541636 39.5806 0.258347 38.9081 0.615626C38.2355 0.972905 37.6503 1.47444 37.1944 2.08431C36.7384 2.69419 36.423 3.39731 36.2706 4.14333H25.73C25.5276 3.14533 25.0349 2.22929 24.3138 1.5101C23.5927 0.790913 22.6752 0.3006 21.6765 0.100656C20.6777 -0.0992874 19.6421 4.04547e-05 18.6996 0.386182C17.7571 0.772324 16.9496 1.42809 16.3784 2.27123C15.8073 3.11436 15.4978 4.10734 15.4889 5.12561C15.48 6.14389 15.772 7.14212 16.3284 7.99512C16.8847 8.84811 17.6806 9.5179 18.6162 9.92046C19.5518 10.323 20.5855 10.4404 21.5876 10.258L22.1879 11.7584L24.1068 10.9911L23.5052 9.4894C24.6525 8.73425 25.4528 7.55443 25.73 6.20944H36.2713C36.5483 7.55433 37.3484 8.73413 38.4954 9.4894L37.4812 12.0243L39.4 12.7916L40.4137 10.2581C41.7224 10.497 43.0729 10.2193 44.1811 9.48333L52.5252 17.8252C51.7891 18.9331 51.5113 20.2832 51.7502 21.5916L44.0494 24.671L44.817 26.5894L52.5192 23.5092C52.8931 24.0773 53.3753 24.5662 53.9382 24.9479C54.5012 25.3297 55.1338 25.5969 55.8 25.7342V36.2726C54.4547 36.5497 53.2746 37.3495 52.5192 38.4963L49.467 37.2756L48.6995 39.194L51.7502 40.4139C51.5113 41.7223 51.7891 43.0724 52.5252 44.1803L50.4844 46.2206L51.9458 47.6816L53.9866 45.6413C54.6221 46.0609 55.3425 46.3349 56.0963 46.4436C56.8501 46.5522 57.6186 46.4929 58.3468 46.2699C59.075 46.0469 59.7448 45.6657 60.3084 45.1535C60.8719 44.6414 61.3152 44.011 61.6065 43.3076C61.8979 42.6041 62.03 41.8449 61.9935 41.0844C61.957 40.3239 61.7527 39.5809 61.3953 38.9085C61.0379 38.2362 60.5362 37.6512 59.9262 37.1954C59.3162 36.7396 58.6129 36.4243 57.8667 36.272V25.7342C59.0329 25.4945 60.0808 24.8602 60.8338 23.9381C61.5867 23.016 61.9986 21.8625 62 20.6722ZM20.6667 8.27556C20.0535 8.27556 19.4542 8.09379 18.9444 7.75325C18.4346 7.41271 18.0373 6.92869 17.8026 6.36239C17.568 5.79609 17.5066 5.17295 17.6262 4.57177C17.7458 3.97059 18.0411 3.41837 18.4746 2.98495C18.9082 2.55152 19.4605 2.25635 20.0619 2.13677C20.6632 2.01719 21.2865 2.07856 21.853 2.31313C22.4194 2.5477 22.9036 2.94493 23.2442 3.45458C23.5849 3.96424 23.7667 4.56343 23.7667 5.17639C23.7657 5.99805 23.4388 6.78577 22.8576 7.36677C22.2765 7.94777 21.4885 8.2746 20.6667 8.27556ZM41.3333 8.27556C40.7202 8.27556 40.1209 8.09379 39.6111 7.75325C39.1013 7.41271 38.7039 6.92869 38.4693 6.36239C38.2347 5.79609 38.1733 5.17295 38.2929 4.57177C38.4125 3.97059 38.7078 3.41837 39.1413 2.98495C39.5748 2.55152 40.1272 2.25635 40.7286 2.13677C41.3299 2.01719 41.9532 2.07856 42.5196 2.31313C43.0861 2.5477 43.5703 2.94493 43.9109 3.45458C44.2515 3.96424 44.4333 4.56343 44.4333 5.17639C44.4324 5.99805 44.1055 6.78577 43.5243 7.36677C42.9431 7.94777 42.1552 8.2746 41.3333 8.27556ZM59.9333 41.3333C59.9333 41.9463 59.7515 42.5455 59.4109 43.0551C59.0703 43.5648 58.5861 43.962 58.0196 44.1966C57.4532 44.4312 56.8299 44.4925 56.2286 44.3729C55.6272 44.2534 55.0748 43.9582 54.6413 43.5248C54.2078 43.0913 53.9125 42.5391 53.7929 41.9379C53.6733 41.3368 53.7347 40.7136 53.9693 40.1473C54.2039 39.581 54.6013 39.097 55.1111 38.7565C55.6209 38.4159 56.2202 38.2342 56.8333 38.2342C57.6552 38.2351 58.4431 38.5619 59.0243 39.1429C59.6055 39.7239 59.9324 40.5117 59.9333 41.3333ZM56.8333 23.7714C56.2202 23.7714 55.6209 23.5896 55.1111 23.2491C54.6013 22.9085 54.2039 22.4245 53.9693 21.8582C53.7347 21.2919 53.6733 20.6688 53.7929 20.0676C53.9125 19.4664 54.2078 18.9142 54.6413 18.4808C55.0748 18.0474 55.6272 17.7522 56.2286 17.6326C56.8299 17.513 57.4532 17.5744 58.0196 17.809C58.5861 18.0435 59.0703 18.4408 59.4109 18.9504C59.7515 19.4601 59.9333 20.0593 59.9333 20.6722C59.9324 21.4939 59.6055 22.2816 59.0243 22.8626C58.4431 23.4436 57.6552 23.7704 56.8333 23.7714ZM21.7 21.7053V45.4656C21.7007 46.0133 21.9186 46.5385 22.306 46.9258C22.6935 47.3131 23.2188 47.531 23.7667 47.5317H35.1333V49.5978H23.7667C22.6708 49.5965 21.6202 49.1608 20.8453 48.3861C20.0704 47.6114 19.6346 46.5611 19.6333 45.4656V21.7053H21.7ZM45.4667 46.4986V35.2083C45.4682 34.6655 45.3619 34.1277 45.1541 33.6262C44.9464 33.1246 44.6411 32.6693 44.2561 32.2865L42.3667 30.3977V37.8062L44.1307 39.5698L42.6693 41.0308L40.6026 38.9647L37.1113 35.4742C37.0037 35.3667 36.8759 35.2814 36.7353 35.2232C36.5948 35.165 36.4441 35.135 36.2919 35.135C36.1398 35.135 35.9891 35.165 35.8485 35.2232C35.708 35.2814 35.5802 35.3668 35.4727 35.4744C35.3651 35.5819 35.2797 35.7096 35.2215 35.8502C35.1633 35.9907 35.1333 36.1413 35.1334 36.2935C35.1334 36.4456 35.1633 36.5962 35.2216 36.7367C35.2798 36.8773 35.3652 37.005 35.4728 37.1125L38.964 40.6028C39.133 40.7717 39.2382 40.9939 39.2617 41.2315C39.2853 41.4692 39.2257 41.7077 39.0932 41.9064C38.5676 42.6969 38.2599 43.6119 38.2009 44.5592C38.1419 45.5065 38.3339 46.4526 38.7574 47.3021L39.1578 48.1027C39.2295 48.2461 39.2668 48.4043 39.2667 48.5647V49.5978H37.2V48.8087L36.9086 48.226C36.3875 47.1806 36.1189 46.0277 36.1242 44.8597C36.1296 43.6918 36.4088 42.5413 36.9395 41.5008L34.0113 38.5734C33.4107 37.9678 33.0746 37.149 33.0764 36.2962C33.0783 35.4434 33.418 34.626 34.0212 34.023C34.6244 33.42 35.442 33.0805 36.295 33.0786C37.148 33.0768 37.967 33.4129 38.5728 34.0134L40.3 35.7401V17.5731C40.2994 17.0253 40.0814 16.5001 39.694 16.1128C39.3065 15.7255 38.7812 15.5076 38.2333 15.5069H35.7719L35.0242 17.002C34.9384 17.1736 34.8064 17.3179 34.6432 17.4188C34.48 17.5196 34.2919 17.573 34.1 17.5731H27.9C27.7081 17.573 27.52 17.5196 27.3568 17.4188C27.1936 17.3179 27.0616 17.1736 26.9758 17.002L26.2281 15.5069H23.7667C23.2188 15.5076 22.6935 15.7255 22.306 16.1128C21.9186 16.5001 21.7007 17.0253 21.7 17.5731V19.6392H19.6333V17.5731C19.6346 16.4775 20.0704 15.4272 20.8453 14.6525C21.6202 13.8778 22.6708 13.4421 23.7667 13.4408H38.2333C39.3292 13.4421 40.3798 13.8778 41.1547 14.6525C41.9296 15.4272 42.3654 16.4775 42.3667 17.5731V27.4757L45.7174 30.8255C46.2949 31.3997 46.7528 32.0827 47.0645 32.8351C47.3762 33.5874 47.5355 34.394 47.5333 35.2083V46.4986H45.4667ZM28.9333 43.3994H33.0667V45.4656H28.9333V43.3994ZM33.3693 30.7002C32.7405 30.0729 31.8884 29.7206 31 29.7206C30.1116 29.7206 29.2595 30.0729 28.6307 30.7002L27.1693 29.2392C28.1861 28.225 29.5637 27.6555 31 27.6555C32.4363 27.6555 33.8139 28.225 34.8307 29.2392L33.3693 30.7002ZM36.4693 28.1023C35.7511 27.3843 34.8984 26.8147 33.96 26.4261C33.0215 26.0375 32.0157 25.8375 31 25.8375C29.9843 25.8375 28.9785 26.0375 28.04 26.4261C27.1016 26.8147 26.2489 27.3843 25.5307 28.1023L24.0693 26.6415C25.9089 24.8065 28.4014 23.776 31 23.776C33.5986 23.776 36.0911 24.8065 37.9307 26.6415L36.4693 28.1023ZM32.0333 34.1019V36.1681H29.9667V34.1019H32.0333ZM25.8333 34.1019H27.9V36.1681H25.8333V34.1019Z" fill="url(#paint0_linear)"/>
<defs>
<linearGradient id="paint0_linear" x1="62" y1="-2.75076e-05" x2="-1.76697" y2="1.87394" gradientUnits="userSpaceOnUse">
<stop stop-color="#2FE99C"/>
<stop offset="1" stop-color="#33B8B6"/>
</linearGradient>
</defs>
</svg>
