<svg width="60" height="63" viewBox="0 0 60 63" fill="none" xmlns="http://www.w3.org/2000/svg">
<path d="M7.76476 53.3629C6.73029 52.6446 5.47864 52.3552 4.25251 52.5509C3.02638 52.7466 1.91314 53.4134 1.12864 54.422C0.34414 55.4306 -0.0557116 56.7091 0.00661634 58.0097C0.0689443 59.3103 0.589011 60.5402 1.46597 61.461C2.34293 62.3818 3.5143 62.9279 4.75295 62.9934C5.99159 63.0588 7.20925 62.639 8.16982 61.8152C9.13038 60.9915 9.76541 59.8226 9.95176 58.5351C10.1381 57.2477 9.86252 55.9335 9.17841 54.8473L15.0065 48.7278V57.7391C15.0079 59.1304 15.535 60.4643 16.472 61.4481C17.4089 62.4319 18.6793 62.9853 20.0044 62.9869H36.9972V60.8878H20.0044C19.2093 60.8868 18.4471 60.5548 17.8849 59.9645C17.3227 59.3742 17.0065 58.5739 17.0056 57.7391V46.6287L23.7099 39.5891L22.2963 38.1048L17.0056 43.66V36.9682L19.3094 36.1942L18.7002 34.1949L17.0056 34.7641V28.2359L22.6985 30.1487L23.3077 28.1493L17.0056 26.0318V21.0044H15.0065V25.3601L9.97882 23.6708C10.1143 22.3763 9.78723 21.0751 9.0609 20.0194C8.33458 18.9638 7.2608 18.229 6.04778 17.9575C4.83476 17.686 3.56893 17.8971 2.49574 18.5499C1.42256 19.2027 0.618483 20.2507 0.239436 21.4907C-0.139611 22.7307 -0.0666221 24.0743 0.444249 25.261C0.955121 26.4477 1.86747 27.3929 3.0044 27.9134C4.14132 28.4339 5.4218 28.4925 6.59755 28.0779C7.7733 27.6633 8.76054 26.805 9.36783 25.6695L15.0065 27.5641V35.4359L9.36783 37.3305C8.76122 36.1971 7.77545 35.3406 6.60161 34.927C5.42778 34.5135 4.14951 34.5723 3.01461 35.092C1.87972 35.6118 0.969044 36.5555 0.459139 37.7402C-0.0507659 38.9249 -0.123577 40.2662 0.254821 41.5041C0.633219 42.7419 1.43587 43.7882 2.50717 44.44C3.57847 45.0918 4.8421 45.3027 6.05308 45.0319C7.26407 44.761 8.33615 44.0277 9.06147 42.9741C9.7868 41.9204 10.1137 40.6216 9.97882 39.3292L15.0065 37.6399V45.7591L7.76476 53.3629ZM5.01067 60.8878C4.41757 60.8878 3.8378 60.7031 3.34466 60.3571C2.85152 60.0111 2.46716 59.5194 2.24019 58.944C2.01323 58.3687 1.95384 57.7356 2.06955 57.1248C2.18526 56.514 2.47086 55.953 2.89024 55.5126C3.30962 55.0723 3.84394 54.7724 4.42564 54.6509C5.00734 54.5294 5.61029 54.5918 6.15823 54.8301C6.70618 55.0684 7.17452 55.472 7.50402 55.9898C7.83353 56.5076 8.0094 57.1163 8.0094 57.7391C8.00848 58.5739 7.69224 59.3742 7.13007 59.9645C6.5679 60.5548 5.8057 60.8868 5.01067 60.8878ZM5.01067 26.2522C4.41757 26.2522 3.8378 26.0675 3.34466 25.7215C2.85152 25.3756 2.46716 24.8838 2.24019 24.3084C2.01323 23.7331 1.95384 23.1 2.06955 22.4892C2.18526 21.8784 2.47086 21.3174 2.89024 20.877C3.30962 20.4367 3.84394 20.1368 4.42564 20.0153C5.00734 19.8938 5.61029 19.9562 6.15823 20.1945C6.70618 20.4328 7.17452 20.8364 7.50402 21.3542C7.83353 21.872 8.0094 22.4807 8.0094 23.1035C8.00848 23.9383 7.69224 24.7386 7.13007 25.3289C6.5679 25.9192 5.8057 26.2512 5.01067 26.2522ZM5.01067 43.0452C4.41757 43.0452 3.8378 42.8605 3.34466 42.5145C2.85152 42.1686 2.46716 41.6768 2.24019 41.1015C2.01323 40.5261 1.95384 39.893 2.06955 39.2822C2.18526 38.6714 2.47086 38.1104 2.89024 37.6701C3.30962 37.2297 3.84394 36.9298 4.42564 36.8083C5.00734 36.6868 5.61029 36.7492 6.15823 36.9875C6.70618 37.2258 7.17452 37.6294 7.50402 38.1472C7.83353 38.665 8.0094 39.2738 8.0094 39.8965C8.00848 40.7313 7.69224 41.5316 7.13007 42.1219C6.5679 42.7122 5.8057 43.0442 5.01067 43.0452ZM38.9079 32.1178C38.8287 31.9337 38.7007 31.7775 38.5391 31.6679C38.3775 31.5583 38.1892 31.5 37.9968 31.5H33.2559L35.9726 19.1414C36.0232 18.9104 35.9978 18.6683 35.9007 18.4544C35.8035 18.2405 35.6402 18.0674 35.4375 17.9633C35.2347 17.8592 35.0043 17.8303 34.7839 17.8811C34.5634 17.932 34.3659 18.0597 34.2234 18.2435L21.2288 35.0365C21.1098 35.1904 21.0347 35.3765 21.0122 35.5734C20.9898 35.7702 21.0209 35.9698 21.1019 36.1488C21.183 36.3279 21.3107 36.4792 21.4702 36.5852C21.6298 36.6912 21.8147 36.7476 22.0035 36.7478H26.5825L22.0617 50.0391C21.9835 50.2689 21.9839 50.5201 22.063 50.7496C22.1421 50.9791 22.2949 51.1725 22.4951 51.2965C22.6952 51.4205 22.9303 51.4674 23.1599 51.4291C23.3894 51.3907 23.5991 51.2696 23.7528 51.0866L38.7465 33.244C38.8737 33.0925 38.9567 32.9056 38.9853 32.7059C39.0139 32.5061 38.9871 32.3019 38.9079 32.1178ZM25.6927 45.6047L28.9423 36.0509C28.9961 35.8925 29.0129 35.7229 28.9913 35.5563C28.9696 35.3897 28.9101 35.231 28.8179 35.0936C28.7256 34.9561 28.6032 34.844 28.4611 34.7665C28.3189 34.6891 28.1611 34.6487 28.001 34.6487H24.1036L33.0542 23.0816L31.0253 32.3134C30.9915 32.4673 30.9912 32.6272 31.0243 32.7812C31.0575 32.9352 31.1234 33.0793 31.217 33.2029C31.3106 33.3265 31.4296 33.4263 31.565 33.4949C31.7005 33.5635 31.8489 33.5991 31.9993 33.5991H35.7817L25.6927 45.6047ZM33.7057 5.56831L32.292 7.05266C31.6837 6.41531 30.8595 6.05737 30.0001 6.05737C29.1408 6.05737 28.3165 6.41531 27.7082 7.05266L26.2946 5.56831C27.2781 4.53792 28.6108 3.95925 30.0001 3.95925C31.3895 3.95925 32.7222 4.53792 33.7057 5.56831ZM35.2908 4.41379C34.596 3.68427 33.7712 3.10559 32.8634 2.71077C31.9556 2.31596 30.9827 2.11275 30.0001 2.11275C29.0176 2.11275 28.0446 2.31596 27.1369 2.71077C26.2291 3.10559 25.4043 3.68427 24.7095 4.41379L23.2958 2.92906C25.0753 1.0648 27.4864 0.0178178 30.0001 0.0178178C32.5139 0.0178178 34.925 1.0648 36.7044 2.92906L35.2908 4.41379ZM5.01067 10.5087C5.99048 10.5097 6.94869 10.2065 7.76476 9.63708L24.2953 26.9942L25.709 25.5099L17.0056 16.3713V13.6574C17.0065 12.8226 17.3227 12.0223 17.8849 11.432C18.4471 10.8417 19.2093 10.5097 20.0044 10.5087H24.3845L25.1078 12.0277C25.1908 12.202 25.3185 12.3486 25.4764 12.4511C25.6343 12.5536 25.8162 12.6079 26.0018 12.6079H33.9985C34.1841 12.6079 34.366 12.5536 34.5239 12.4511C34.6818 12.3486 34.8094 12.202 34.8925 12.0277L35.6158 10.5087H39.9959C40.791 10.5097 41.5532 10.8417 42.1154 11.432C42.6776 12.0223 42.9938 12.8226 42.9947 13.6574V16.3713L35.2908 24.4605L36.7044 25.9448L42.9947 19.34V26.0318L36.6926 28.1493L37.3018 30.1487L42.9947 28.2359V32.5496H44.9938V27.5641L50.6325 25.6695C51.2391 26.8029 52.2248 27.6594 53.3987 28.073C54.5725 28.4865 55.8508 28.4277 56.9857 27.908C58.1206 27.3882 59.0312 26.4445 59.5411 25.2598C60.0511 24.0751 60.1239 22.7338 59.7455 21.4959C59.3671 20.2581 58.5644 19.2118 57.4931 18.56C56.4218 17.9082 55.1582 17.6973 53.9472 17.9681C52.7362 18.239 51.6641 18.9723 50.9388 20.0259C50.2135 21.0796 49.8866 22.3785 50.0215 23.6708L44.9938 25.3601V17.2409L52.2355 9.63708C53.27 10.3554 54.5216 10.6448 55.7478 10.4491C56.9739 10.2534 58.0872 9.58665 58.8716 8.57805C59.6561 7.56945 60.056 6.2909 59.9937 4.99032C59.9313 3.68973 59.4113 2.45979 58.5343 1.53898C57.6574 0.618161 56.486 0.0720891 55.2473 0.0066444C54.0087 -0.0588003 52.791 0.361046 51.8305 1.18477C50.8699 2.0085 50.2349 3.17741 50.0485 4.46486C49.8622 5.7523 50.1378 7.06654 50.8219 8.15273L44.9938 14.2722V13.6574C44.9923 12.2661 44.4653 10.9322 43.5283 9.94839C42.5914 8.96457 41.321 8.41118 39.9959 8.40961H20.0044C18.6793 8.41118 17.4089 8.96457 16.472 9.94839C15.535 10.9322 15.0079 12.2661 15.0065 13.6574V14.2722L9.17841 8.15273C9.79136 7.17768 10.0768 6.01568 9.98941 4.85098C9.90204 3.68628 9.44689 2.58553 8.69611 1.72326C7.94534 0.860991 6.94192 0.286555 5.84494 0.0910294C4.74796 -0.104496 3.62021 0.0900789 2.6405 0.643905C1.66079 1.19773 0.88519 2.07911 0.436674 3.1483C-0.0118427 4.21748 -0.107605 5.41328 0.16457 6.5461C0.436746 7.67892 1.06128 8.68392 1.93915 9.40175C2.81703 10.1196 3.898 10.5092 5.01067 10.5087ZM54.9896 19.9548C55.5827 19.9548 56.1625 20.1395 56.6556 20.4855C57.1488 20.8314 57.5331 21.3232 57.7601 21.8985C57.9871 22.4739 58.0464 23.107 57.9307 23.7178C57.815 24.3286 57.5294 24.8896 57.11 25.33C56.6907 25.7703 56.1563 26.0702 55.5746 26.1917C54.9929 26.3132 54.39 26.2508 53.8421 26.0125C53.2941 25.7742 52.8258 25.3706 52.4963 24.8528C52.1668 24.335 51.9909 23.7262 51.9909 23.1035C51.9918 22.2687 52.308 21.4684 52.8702 20.8781C53.4324 20.2878 54.1946 19.9558 54.9896 19.9548ZM54.9896 2.11223C55.5827 2.11223 56.1625 2.2969 56.6556 2.64288C57.1488 2.98887 57.5331 3.48062 57.7601 4.05597C57.9871 4.63132 58.0464 5.26442 57.9307 5.8752C57.815 6.48599 57.5294 7.04703 57.11 7.48738C56.6907 7.92773 56.1563 8.22762 55.5746 8.34911C54.9929 8.4706 54.39 8.40825 53.8421 8.16993C53.2941 7.93162 52.8258 7.52804 52.4963 7.01024C52.1668 6.49244 51.9909 5.88367 51.9909 5.26092C51.9918 4.42614 52.308 3.62582 52.8702 3.03554C53.4324 2.44525 54.1946 2.11321 54.9896 2.11223ZM5.01067 2.11223C5.60376 2.11223 6.18354 2.2969 6.67668 2.64288C7.16982 2.98887 7.55417 3.48062 7.78114 4.05597C8.00811 4.63132 8.06749 5.26442 7.95178 5.8752C7.83608 6.48599 7.55048 7.04703 7.13109 7.48738C6.71171 7.92773 6.17739 8.22762 5.59569 8.34911C5.01399 8.4706 4.41105 8.40825 3.8631 8.16993C3.31515 7.93162 2.84681 7.52804 2.51731 7.01024C2.1878 6.49244 2.01193 5.88367 2.01193 5.26092C2.01286 4.42614 2.32909 3.62582 2.89126 3.03554C3.45343 2.44525 4.21564 2.11321 5.01067 2.11223ZM54.9896 34.6487C54.102 34.6494 53.2306 34.8982 52.4649 35.3695C51.6991 35.8408 51.0667 36.5176 50.6325 37.3305L40.3006 33.8589L39.6913 35.8583L42.9947 36.9682V43.6601L40.5312 41.0735C39.8136 40.3199 38.8402 39.8966 37.8253 39.8965C36.8103 39.8965 35.837 40.3199 35.1193 41.0734C34.4016 41.8269 33.9984 42.849 33.9984 43.9146C33.9984 44.9803 34.4016 46.0024 35.1192 46.7559L38.7802 50.6L38.7102 50.7469C37.8527 52.5358 37.43 54.5198 37.48 56.5218C37.5299 58.5239 38.0508 60.4819 38.9964 62.2212V62.9869H40.9955V61.9373C40.9955 61.7471 40.9462 61.5605 40.8531 61.3973C40.0166 59.9421 39.5453 58.2878 39.4831 56.5893C39.421 54.8908 39.7701 53.2034 40.4978 51.6851L40.8899 50.8616C40.9837 50.6645 41.0161 50.4414 40.9825 50.224C40.9488 50.0065 40.8509 49.8057 40.7025 49.65L36.5326 45.2717C36.1942 44.9109 36.0054 44.4242 36.0072 43.9178C36.0091 43.4114 36.2015 42.9263 36.5425 42.5682C36.8835 42.2101 37.3456 42.008 37.8279 42.0061C38.3102 42.0041 38.7736 42.2024 39.1173 42.5577L43.2872 46.9361L46.2859 50.0848L47.6996 48.6004L44.9938 45.7591V39.2816L49.5274 44.0423C49.993 44.5284 50.3621 45.1066 50.6133 45.7435C50.8646 46.3805 50.9931 47.0634 50.9913 47.7528V62.9869H52.9905V47.7528C52.9926 46.5028 52.6893 45.2731 52.1096 44.1814C52.7515 44.657 53.4911 44.9671 54.2685 45.0863C55.0459 45.2056 55.8392 45.1307 56.5838 44.8676C57.3285 44.6046 58.0036 44.1609 58.5543 43.5726C59.105 42.9842 59.5158 42.2678 59.7534 41.4815C59.991 40.6951 60.0486 39.8611 59.9216 39.047C59.7946 38.2329 59.4865 37.4617 59.0224 36.7961C58.5584 36.1304 57.9513 35.5891 57.2506 35.216C56.5499 34.8429 55.7753 34.6485 54.9896 34.6487ZM46.8523 38.2643L50.0215 39.3292C49.926 40.2416 50.0614 41.1643 50.4139 42.0042L46.8523 38.2643ZM54.9896 43.0452C54.3965 43.0452 53.8167 42.8605 53.3236 42.5145C52.8305 42.1686 52.4461 41.6768 52.2192 41.1015C51.9922 40.5261 51.9328 39.893 52.0485 39.2822C52.1642 38.6714 52.4498 38.1104 52.8692 37.6701C53.2886 37.2297 53.8229 36.9298 54.4046 36.8083C54.9863 36.6868 55.5892 36.7492 56.1372 36.9875C56.6851 37.2258 57.1535 37.6294 57.483 38.1472C57.8125 38.665 57.9884 39.2738 57.9884 39.8965C57.9874 40.7313 57.6712 41.5316 57.109 42.1219C56.5469 42.7122 55.7846 43.0442 54.9896 43.0452ZM26.0018 58.7886V56.6895H33.9985V58.7886H26.0018Z" fill="url(#paint0_linear)"/>
<defs>
<linearGradient id="paint0_linear" x1="60" y1="-2.79513e-05" x2="-1.71492" y2="1.72727" gradientUnits="userSpaceOnUse">
<stop stop-color="#2FE99C"/>
<stop offset="1" stop-color="#33B8B6"/>
</linearGradient>
</defs>
</svg>
