<svg width="41" height="62" viewBox="0 0 41 62" fill="none" xmlns="http://www.w3.org/2000/svg">
<path d="M1.85836 56.8209V12.3969H0V56.8209C0 59.6749 2.07904 61.9865 4.6459 61.9865H26.0171V59.9203H4.6459C3.11275 59.9203 1.85836 58.5256 1.85836 56.8209Z" fill="url(#paint0_linear)"/>
<path d="M12.0793 55.7882H21.3711V57.851H12.0793V55.7882Z" fill="url(#paint1_linear)"/>
<path d="M3.7168 19.6289C3.7168 20.1971 4.13493 20.662 4.64598 20.662H5.65648C5.85393 21.269 6.36498 21.6952 6.96895 21.6952C7.57292 21.6952 8.08398 21.269 8.28143 20.662H10.3024C10.4999 21.269 11.0109 21.6952 11.6149 21.6952C12.2189 21.6952 12.7299 21.269 12.9274 20.662H13.9379C14.4489 20.662 14.867 20.1971 14.867 19.6289V16.5294C14.867 16.142 14.6696 15.7804 14.356 15.5996L12.7764 14.7214L11.9866 12.9651C11.824 12.6164 11.5104 12.3969 11.1503 12.3969H7.43355C7.0851 12.3969 6.75989 12.6164 6.59728 12.9651L5.80747 14.7214L4.22785 15.5996C3.91425 15.7804 3.7168 16.1291 3.7168 16.5294V19.6289ZM5.57517 17.1622L6.92249 16.4132C7.09672 16.3099 7.24771 16.1549 7.34063 15.9483L8.01429 14.4502H10.5812L11.2548 15.9483C11.3477 16.142 11.4871 16.3099 11.673 16.4132L13.0203 17.1622V18.5957H5.58679V17.1622H5.57517Z" fill="url(#paint2_linear)"/>
<path d="M26.0171 11.3645V12.7333L24.7395 11.5969C24.4027 11.2999 23.9149 11.2999 23.578 11.5969L18.9321 15.729C18.6185 16.0002 18.5024 16.4651 18.6302 16.8783C18.7579 17.2915 19.118 17.5756 19.5013 17.5756V20.6746C19.5013 21.2428 19.9194 21.7077 20.4304 21.7077H27.8639C28.3749 21.7077 28.793 21.2428 28.793 20.6746V17.5756C29.1879 17.5756 29.5364 17.3044 29.6642 16.8783C29.7919 16.4651 29.6758 16.0002 29.3622 15.729L27.8523 14.3861V11.3645H26.0171ZM26.9463 16.5296V19.6287H25.0879V17.5627H23.2296V19.6287H21.3712V16.5296C21.3712 16.4263 21.3596 16.323 21.3364 16.2326L24.1588 13.7146L26.9811 16.2326C26.9579 16.323 26.9463 16.4263 26.9463 16.5296Z" fill="url(#paint3_linear)"/>
<path d="M27.8292 28.2292L28.4448 26.8604H29.734V24.7942H27.8757C27.5272 24.7942 27.202 25.0137 27.0394 25.3624L26.3657 26.8604H19.513C19.2343 26.8604 18.9671 27.0024 18.7929 27.2349C18.6187 27.4673 18.549 27.7902 18.5955 28.0872L19.5246 33.2526C19.5595 33.4334 19.6408 33.6013 19.7453 33.7434C19.5943 33.9887 19.513 34.2857 19.513 34.6086C19.513 35.4609 20.1402 36.1582 20.9068 36.1582C21.6734 36.1582 22.3006 35.4609 22.3006 34.6086C22.3006 34.4278 22.2657 34.2599 22.2193 34.092H24.2402C24.1938 34.2599 24.1589 34.4278 24.1589 34.6086C24.1589 35.4609 24.7861 36.1582 25.5527 36.1582C26.3193 36.1582 26.9465 35.4609 26.9465 34.6086C26.9465 34.2857 26.8536 33.9887 26.7142 33.7434C26.8187 33.6142 26.9 33.4463 26.9349 33.2526L27.8292 28.2292ZM25.8082 28.9266L25.2507 32.0258H21.1972L20.6397 28.9266H25.8082Z" fill="url(#paint4_linear)"/>
<path d="M3.7168 43.3904C3.7168 43.9587 4.13494 44.4236 4.64599 44.4236H5.57519V49.5893C5.57519 50.1575 5.99333 50.6224 6.50439 50.6224C7.01545 50.6224 7.43359 50.1575 7.43359 49.5893V48.5561H12.0796V49.5893C12.0796 50.1575 12.4977 50.6224 13.0088 50.6224C13.5198 50.6224 13.938 50.1575 13.938 49.5893V47.1227L14.449 47.4068L15.2853 45.56L13.6708 44.656C13.2295 43.5971 12.2654 42.8739 11.1504 42.8739H8.94353L8.90869 42.6156C8.74608 41.2854 7.71235 40.291 6.50439 40.291C5.99333 40.291 5.57519 40.7559 5.57519 41.3242V41.505L4.47177 41.7374C4.0304 41.8278 3.7168 42.254 3.7168 42.7576V43.3904ZM7.43359 44.5915C7.60781 44.811 7.85173 44.9402 8.13049 44.9402H11.1504C11.6614 44.9402 12.0796 45.4051 12.0796 45.9733V46.4899H7.43359V44.5915Z" fill="url(#paint5_linear)"/>
<path d="M38.7702 38.2899L33.4506 31.6392V5.16559C33.4506 2.3116 31.3715 0 28.8047 0H4.64591C2.07905 0 0 2.3116 0 5.16559V10.3312H1.85837V5.16559C1.85837 3.46095 3.11276 2.06624 4.64591 2.06624H28.8047C30.3378 2.06624 31.5922 3.46095 31.5922 5.16559V32.0267V41.9317L28.5608 38.5611C27.7593 37.6701 26.7024 37.1923 25.5758 37.1923C23.2528 37.1923 21.3596 39.2972 21.3596 41.88C21.3596 43.1327 21.801 44.3079 22.5908 45.1989L22.8347 45.4701H21.3712V43.4039H19.5128V46.5032C19.5128 47.0714 19.931 47.5364 20.442 47.5364H22.6604L21.4757 50.1708L23.1367 51.1006L24.7279 47.5622L27.6083 50.7648C26.0984 53.5155 25.9474 56.9248 27.2715 59.8563L27.8871 61.2122V62H29.7455V60.9669C29.7455 60.8119 29.7106 60.644 29.6525 60.502L28.944 58.9265C27.8174 56.4341 28.0613 53.4897 29.5712 51.2556C29.85 50.8423 29.8152 50.2741 29.4899 49.8996L23.9497 43.7396C23.5083 43.2489 23.2644 42.5903 23.2644 41.8929C23.2644 40.4466 24.3214 39.2714 25.6222 39.2714C26.2494 39.2714 26.8418 39.5426 27.2831 40.0333L31.8942 45.1602L34.6818 48.2595L35.9942 46.8003L33.4506 43.9979V34.7386L37.388 39.6588C38.4449 40.989 39.0257 42.6936 39.0257 44.4628V61.9871H40.884V44.4628C40.884 42.19 40.1291 39.9946 38.7702 38.2899Z" fill="url(#paint6_linear)"/>
<path d="M3.7168 6.18481H5.57527V8.24586H3.7168V6.18481Z" fill="url(#paint7_linear)"/>
<path d="M7.43384 6.18481H9.29218V8.24586H7.43384V6.18481Z" fill="url(#paint8_linear)"/>
<path d="M11.15 6.18481H13.0085V8.24586H11.15V6.18481Z" fill="url(#paint9_linear)"/>
<path d="M10.2211 35.1224V32.0241H13.0086V29.9586H10.2211V26.8604H8.36273V29.9586H5.5752V32.0241H8.36273V35.1224H10.2211Z" fill="url(#paint10_linear)"/>
<defs>
<linearGradient id="paint0_linear" x1="26.0171" y1="12.3968" x2="-0.758218" y2="12.8097" gradientUnits="userSpaceOnUse">
<stop stop-color="#2FE99C"/>
<stop offset="1" stop-color="#33B8B6"/>
</linearGradient>
<linearGradient id="paint1_linear" x1="21.3711" y1="55.7882" x2="11.971" y2="57.0326" gradientUnits="userSpaceOnUse">
<stop stop-color="#2FE99C"/>
<stop offset="1" stop-color="#33B8B6"/>
</linearGradient>
<linearGradient id="paint2_linear" x1="14.867" y1="12.3968" x2="3.40335" y2="12.8008" gradientUnits="userSpaceOnUse">
<stop stop-color="#2FE99C"/>
<stop offset="1" stop-color="#33B8B6"/>
</linearGradient>
<linearGradient id="paint3_linear" x1="29.7152" y1="11.3645" x2="18.2633" y2="11.7268" gradientUnits="userSpaceOnUse">
<stop stop-color="#2FE99C"/>
<stop offset="1" stop-color="#33B8B6"/>
</linearGradient>
<linearGradient id="paint4_linear" x1="29.734" y1="24.7942" x2="18.2632" y2="25.125" gradientUnits="userSpaceOnUse">
<stop stop-color="#2FE99C"/>
<stop offset="1" stop-color="#33B8B6"/>
</linearGradient>
<linearGradient id="paint5_linear" x1="15.2853" y1="40.291" x2="3.38971" y2="40.6825" gradientUnits="userSpaceOnUse">
<stop stop-color="#2FE99C"/>
<stop offset="1" stop-color="#33B8B6"/>
</linearGradient>
<linearGradient id="paint6_linear" x1="40.884" y1="-2.75076e-05" x2="-1.18569" y2="0.815237" gradientUnits="userSpaceOnUse">
<stop stop-color="#2FE99C"/>
<stop offset="1" stop-color="#33B8B6"/>
</linearGradient>
<linearGradient id="paint7_linear" x1="5.57527" y1="6.18481" x2="3.66352" y2="6.23547" gradientUnits="userSpaceOnUse">
<stop stop-color="#2FE99C"/>
<stop offset="1" stop-color="#33B8B6"/>
</linearGradient>
<linearGradient id="paint8_linear" x1="9.29218" y1="6.18481" x2="7.38057" y2="6.23547" gradientUnits="userSpaceOnUse">
<stop stop-color="#2FE99C"/>
<stop offset="1" stop-color="#33B8B6"/>
</linearGradient>
<linearGradient id="paint9_linear" x1="13.0085" y1="6.18481" x2="11.0968" y2="6.23547" gradientUnits="userSpaceOnUse">
<stop stop-color="#2FE99C"/>
<stop offset="1" stop-color="#33B8B6"/>
</linearGradient>
<linearGradient id="paint10_linear" x1="13.0086" y1="26.8603" x2="5.36209" y2="27.0625" gradientUnits="userSpaceOnUse">
<stop stop-color="#2FE99C"/>
<stop offset="1" stop-color="#33B8B6"/>
</linearGradient>
</defs>
</svg>
