<svg width="20" height="19" viewBox="0 0 20 19" fill="none" xmlns="http://www.w3.org/2000/svg">
<path d="M16.3533 4.40173C14.7952 2.91847 12.7654 2.04766 10.5859 1.91496V1.11328H11.4453C11.7689 1.11328 12.0312 0.864055 12.0312 0.556641C12.0312 0.249227 11.7689 0 11.4453 0H8.55465C8.23105 0 7.96871 0.249227 7.96871 0.556641C7.96871 0.864055 8.23105 1.11328 8.55465 1.11328H9.41402V1.91496C7.91961 2.00595 6.49574 2.44402 5.24594 3.1887L4.68934 2.65885C4.41844 2.40098 4.05809 2.259 3.67461 2.259C3.29113 2.259 2.93078 2.40101 2.65992 2.65885L1.8134 3.46479C1.25617 3.9952 1.25617 4.85829 1.8134 5.38873L2.37379 5.92221C1.4893 7.26672 1.01562 8.82279 1.01562 10.4483C1.01562 12.7323 1.95 14.8797 3.64664 16.4949C5.34359 18.1103 7.59992 19 9.99996 19C12.4 19 14.6563 18.1103 16.3533 16.4949C18.0499 14.8797 18.9843 12.7323 18.9843 10.4483C18.9843 8.16428 18.0499 6.01688 16.3533 4.40173ZM2.64289 4.25121L3.48945 3.44531C3.55617 3.38181 3.6341 3.37231 3.67465 3.37231C3.71519 3.37231 3.79316 3.38178 3.85988 3.44531L4.28449 3.8495C4.0643 4.02292 3.85133 4.20694 3.64668 4.40177C3.44262 4.59603 3.24984 4.79817 3.06816 5.00717L2.64289 4.60234C2.54117 4.50552 2.54117 4.34799 2.64289 4.25121ZM9.99996 17.8867C5.69215 17.8867 2.1875 14.5498 2.1875 10.4483C2.1875 6.34674 5.69215 3.00987 9.99996 3.00987C14.3078 3.00987 17.8124 6.3467 17.8124 10.4483C17.8124 14.5499 14.3078 17.8867 9.99996 17.8867Z" fill="#62D6B3"/>
<path d="M10 4.05334C6.29527 4.05334 3.28125 6.92212 3.28125 10.4483C3.28125 13.9745 6.29527 16.8433 10 16.8433C13.7048 16.8433 16.7188 13.9745 16.7188 10.4483C16.7188 6.92212 13.7048 4.05334 10 4.05334ZM10.586 15.7006V15.0499C10.586 14.7425 10.3236 14.4933 10 14.4933C9.67645 14.4933 9.4141 14.7425 9.4141 15.0499V15.7006C6.82207 15.4402 4.75668 13.4732 4.48391 11.005H5.15629C5.47988 11.005 5.74223 10.7557 5.74223 10.4483C5.74223 10.1409 5.47988 9.89169 5.15629 9.89169H4.48395C4.75668 7.42343 6.82207 5.45641 9.4141 5.19609V5.84673C9.4141 6.15414 9.67645 6.40337 10 6.40337C10.3236 6.40337 10.586 6.15414 10.586 5.84673V5.19609C13.178 5.45641 15.2434 7.42343 15.5162 9.89169H14.8438C14.5202 9.89169 14.2579 10.1409 14.2579 10.4483C14.2579 10.7557 14.5202 11.005 14.8438 11.005H15.5161C15.2434 13.4732 13.178 15.4402 10.586 15.7006Z" fill="#62D6B3"/>
<path d="M11.4453 10.1271H10.6187V7.87573C10.6187 7.56832 10.3563 7.31909 10.0327 7.31909C9.70912 7.31909 9.44678 7.56832 9.44678 7.87573V10.6837C9.44678 10.9911 9.70912 11.2403 10.0327 11.2403H11.4453C11.7689 11.2403 12.0312 10.9911 12.0312 10.6837C12.0312 10.3763 11.7689 10.1271 11.4453 10.1271Z" fill="#62D6B3"/>
</svg>
