<svg width="89" height="32" viewBox="0 0 89 32" fill="none" xmlns="http://www.w3.org/2000/svg">
<path d="M88.4944 11.9702C87.7955 8.74134 86.071 5.90078 83.6373 3.9702C81.2649 2.11596 78.4255 1.14119 75.5244 1.18501L62.8214 1.18501L62.8214 3.55538L66.5576 3.55538L66.0238 31.9998L73.6563 31.9998C75.3225 31.9986 76.9847 31.82 78.6202 31.4665C80.4263 31.1545 82.1433 30.3839 83.6373 29.2146C84.9922 28.1642 86.1404 26.8187 87.0121 25.26C87.8838 23.7013 88.4607 21.962 88.7079 20.148C88.7613 19.6739 89.4552 15.4072 88.4944 11.9702ZM86.7864 18.785C86.2527 23.1109 84.7582 25.422 82.8367 27.0813C82.0895 27.7332 78.7803 29.6295 73.2827 29.6295L68.6925 29.6295L68.6925 3.55538L75.6312 3.55538C78.2193 3.5075 80.7503 4.40255 82.8367 6.10353C83.8426 6.9051 84.6955 7.92008 85.3459 9.0898C85.9964 10.2595 86.4315 11.5608 86.6263 12.9183C87.3202 16.5924 86.7864 18.785 86.7864 18.785Z" fill="#3AB2B4"/>
<path d="M39.5503 8.54097e-07C31.7576 3.83538e-07 25.4061 7.17037 25.4061 16C25.4061 24.8296 31.7576 32 39.5503 32C47.3429 32 53.6945 24.8296 53.6945 16C53.6945 7.17037 47.3429 1.32466e-06 39.5503 8.54097e-07ZM39.5503 29.6296C36.3308 29.587 33.2581 28.1279 31.0066 25.5726C28.755 23.0173 27.5087 19.5745 27.541 16C27.5059 14.2244 27.7906 12.4589 28.3783 10.8071C28.966 9.15524 29.845 7.6504 30.9636 6.38084C32.0823 5.11127 33.418 4.10256 34.8926 3.4139C36.3671 2.72524 37.9506 2.3705 39.5503 2.3705C41.1499 2.3705 42.7335 2.72524 44.208 3.4139C45.6825 4.10256 47.0183 5.11127 48.1369 6.38084C49.2556 7.6504 50.1345 9.15525 50.7223 10.8071C51.31 12.4589 51.5946 14.2244 51.5595 16C51.5919 19.5745 50.3455 23.0173 48.094 25.5726C45.8425 28.1279 42.7697 29.587 39.5503 29.6296Z" fill="#3AB2B4"/>
<path d="M0 3.43711L0 1.36304L5.23069 1.36304L14.4111 28.089L22.6841 3.43711L19.3749 3.43711L19.3749 1.36304L28.3418 1.36304L28.3418 3.43711L24.5522 3.43711L15.1583 32.0001L13.2368 32.0001L3.57608 3.43711L0 3.43711Z" fill="#3AB2B4"/>
<path d="M59.3342 0.820313L59.3342 31.9998L57.0519 31.9998L57.0519 0.820312L59.3342 0.820313Z" fill="#3AB2B4"/>
</svg>
