<svg width="30" height="30" viewBox="0 0 30 30" fill="none" xmlns="http://www.w3.org/2000/svg">
<rect width="30" height="30" rx="5" fill="#8A3AB9"/>
<path d="M18.9396 7H12.0604C9.82144 7 8 8.82144 8 11.0604V17.9397C8 20.1785 9.82144 22 12.0604 22H18.9397C21.1785 22 23 20.1785 23 17.9397V11.0604C23 8.82144 21.1785 7 18.9396 7V7ZM15.5 18.6014C13.2384 18.6014 11.3985 16.7616 11.3985 14.5C11.3985 12.2384 13.2384 10.3985 15.5 10.3985C17.7616 10.3985 19.6014 12.2384 19.6014 14.5C19.6014 16.7616 17.7616 18.6014 15.5 18.6014ZM19.6995 11.3658C19.0312 11.3658 18.4876 10.8222 18.4876 10.1539C18.4876 9.48554 19.0312 8.94183 19.6995 8.94183C20.3678 8.94183 20.9115 9.48554 20.9115 10.1539C20.9115 10.8222 20.3678 11.3658 19.6995 11.3658Z" fill="white"/>
<path d="M15.5 11.2778C13.7234 11.2778 12.2779 12.7232 12.2779 14.4999C12.2779 16.2765 13.7234 17.722 15.5 17.722C17.2767 17.722 18.722 16.2765 18.722 14.4999C18.722 12.7232 17.2767 11.2778 15.5 11.2778Z" fill="white"/>
<path d="M19.6995 9.82129C19.5162 9.82129 19.3669 9.97052 19.3669 10.1539C19.3669 10.3372 19.5162 10.4864 19.6995 10.4864C19.883 10.4864 20.0322 10.3373 20.0322 10.1539C20.0322 9.97041 19.883 9.82129 19.6995 9.82129Z" fill="white"/>
</svg>
