<svg width="30" height="30" viewBox="0 0 30 30" fill="none" xmlns="http://www.w3.org/2000/svg">
<rect width="30" height="30" rx="5" fill="#3AB2B4"/>
<path d="M21.2644 18.1307L19.3595 16.2043C18.6792 15.5163 17.5226 15.7915 17.2505 16.6859C17.0464 17.3051 16.366 17.6491 15.7537 17.5115C14.3931 17.1675 12.5561 15.3787 12.216 13.9339C12.0119 13.3147 12.4201 12.6267 13.0324 12.4203C13.9168 12.1451 14.189 10.9756 13.5086 10.2876L11.6037 8.3612C11.0594 7.8796 10.243 7.8796 9.76677 8.3612L8.47413 9.66838C7.18149 11.0444 8.6102 14.6907 11.8078 17.9243C15.0054 21.1578 18.6111 22.6714 19.9718 21.2954L21.2644 19.9882C21.7407 19.4379 21.7407 18.6123 21.2644 18.1307Z" fill="white"/>
</svg>
