<svg width="30" height="30" viewBox="0 0 30 30" fill="none" xmlns="http://www.w3.org/2000/svg">
<rect width="30" height="30" rx="5" fill="#25D366"/>
<path d="M15.485 7C11.357 7 8 10.402 8 14.5852C8 15.7951 8.28817 16.9897 8.83458 18.063L8.03368 20.9682C7.94386 21.2981 8.03743 21.6509 8.2732 21.8936C8.45284 22.0718 8.69236 22.1704 8.93562 22.1704C9.0217 22.1704 9.10404 22.1591 9.18637 22.1363L12.0531 21.3247C13.1123 21.8784 14.2949 22.1704 15.485 22.1704C19.613 22.1704 22.97 18.7685 22.97 14.5852C22.97 10.402 19.613 7 15.485 7ZM19.3622 17.3804C19.1976 17.8469 18.3892 18.2982 18.0262 18.3323C17.6631 18.3665 17.3226 18.4992 15.6534 17.8317C13.6399 17.0277 12.3675 14.9379 12.2702 14.8014C12.1691 14.6687 11.4618 13.7167 11.4618 12.7268C11.4618 11.7408 11.9745 11.2553 12.1542 11.0543C12.3376 10.8533 12.5509 10.804 12.6819 10.804C12.8166 10.804 12.9476 10.804 13.0636 10.8078C13.2021 10.8154 13.3593 10.823 13.509 11.1567C13.6849 11.5511 14.0703 12.5448 14.119 12.6472C14.1676 12.7458 14.2013 12.8634 14.134 12.9961C14.0703 13.1289 14.0367 13.2123 13.9356 13.3299C13.8383 13.4474 13.7298 13.5916 13.6399 13.6826C13.5426 13.7812 13.4379 13.8912 13.5539 14.0922C13.6699 14.2932 14.0666 14.9493 14.6542 15.4803C15.4102 16.1629 16.0464 16.3753 16.2447 16.4777C16.4431 16.5763 16.5591 16.5612 16.6751 16.4246C16.7911 16.2919 17.1691 15.8406 17.3039 15.6396C17.4348 15.4386 17.5658 15.4727 17.7492 15.541C17.9289 15.6054 18.9019 16.0909 19.1003 16.1933C19.2986 16.2919 19.4296 16.3412 19.4782 16.4246C19.5269 16.5081 19.5269 16.9101 19.3622 17.3804Z" fill="white"/>
</svg>
